{"title":"The.Amityville.Horror.1979.1080p.BluRay.x264.DD5.1-FGT","uid":12118311,"size":10634087859,"categoryP":"video","categoryS":"hd___movies","magnet":"?xt=urn:btih:52117f650112ce64ddfdc60b15e67205a3acc8a4&amp;dn=The.Amityville.Horror.1979.1080p.BluRay.x264.DD5.1-FGT&amp;tr=udp%3A%2F%2Ftracker.openbittorrent.com%3A80&amp;tr=udp%3A%2F%2Fopen.demonii.com%3A1337&amp;tr=udp%3A%2F%2Ftracker.coppersurfer.tk%3A6969&amp;tr=udp%3A%2F%2Fexodus.desync.com%3A6969","seeders":0,"leechers":1,"uploader":null,"files":3,"time":1436777146,"description":"Video\nID                                       : 1\nFormat                                   : AVC\nFormat/Info                              : Advanced Video Codec\nFormat profile                           : &lt;a class=&quot;__cf_email__&quot; href=&quot;/cdn-cgi/l/email-protection&quot; data-cfemail=&quot;9dd5f4faf5ddd1a9b3ac&quot;&gt;[email&amp;#160;protected]&lt;/a&gt;&lt;script data-cfhash='f9e31' type=&quot;text/javascript&quot;&gt;\n/* &lt;![CDATA[ */!function(){try{var t=&quot;currentScript&quot;in document?document.currentScript:function(){for(var t=document.getElementsByTagName(&quot;script&quot;),e=t.length;e--;)if(t[e].getAttribute(&quot;data-cfhash&quot;))return t[e]}();if(t&amp;&amp;t.previousSibling){var e,r,n,i,c=t.previousSibling,a=c.getAttribute(&quot;data-cfemail&quot;);if(a){for(e=&quot;&quot;,r=parseInt(a.substr(0,2),16),n=2;a.length-n;n+=2)i=parseInt(a.substr(n,2),16)^r,e+=String.fromCharCode(i);e=document.createTextNode(e),c.parentNode.replaceChild(e,c)}t.parentNode.removeChild(t);}}catch(u){}}()/* ]]&gt; */&lt;/script&gt;\nFormat settings, CABAC                   : Yes\nFormat settings, ReFrames                : 5 frames\nCodec ID                                 : V_MPEG4/ISO/AVC\nDuration                                 : 1h 58mn\nBit rate                                 : 11.3 Mbps\nWidth                                    : 1 920 pixels\nHeight                                   : 1 040 pixels\nDisplay aspect ratio                     : 1.85:1\nFrame rate mode                          : Constant\nFrame rate                               : 23.976 fps\nColor space                              : YUV\nChroma subsampling                       : 4:2:0\nBit depth                                : 8 bits\nScan type                                : Progressive\nBits/(Pixel*Frame)                       : 0.235\nStream size                              : 9.33 GiB (94%)\nWriting library                          : x264 core 114 r1913kMod 5fd3dce\nEncoding settings                        : cabac=1 / ref=5 / deblock=1:-3:-3 / analyse=0x3:0x113 / me=umh / subme=10 / psy=1 / fade_compensate=0.00 / psy_rd=1.00:0.40 / mixed_ref=1 / me_range=64 / chroma_me=1 / trellis=2 / 8x8dct=1 / cqm=0 / deadzone=21,11 / fast_pskip=0 / chroma_qp_offset=-4 / threads=12 / sliced_threads=0 / nr=0 / decimate=0 / interlaced=0 / constrained_intra=0 / bframes=5 / b_pyramid=2 / b_adapt=2 / b_bias=0 / direct=3 / weightb=1 / open_gop=0 / weightp=2 / keyint=250 / keyint_min=23 / scenecut=40 / intra_refresh=0 / rc_lookahead=250 / rc=crf / mbtree=1 / crf=20.0000 / qcomp=0.70 / qpmin=0 / qpmax=69 / qpstep=4 / vbv_maxrate=50000 / vbv_bufsize=50000 / crf_max=21.0 / nal_hrd=none / ip_ratio=1.40 / aq=2:1.00\nLanguage                                 : English\nDefault                                  : Yes\nForced                                   : No\n\nAudio\nID                                       : 2\nFormat                                   : AC-3\nFormat/Info                              : Audio Coding 3\nMode extension                           : CM (complete main)\nFormat settings, Endianness              : Big\nCodec ID                                 : A_AC3\nDuration                                 : 1h 58mn\nBit rate mode                            : Constant\nBit rate                                 : 448 Kbps\nChannel(s)                               : 6 channels\nChannel positions                        : Front: L C R, Side: L R, LFE\nSampling rate                            : 48.0 KHz\nBit depth                                : 16 bits\nCompression mode                         : Lossy\nStream size                              : 381 MiB (4%)\nLanguage                                 : English\nDefault                                  : Yes\nForced                                   : No\n\nText\nID                                       : 3\nFormat                                   : UTF-8\nCodec ID                                 : S_TEXT/UTF8\nCodec ID/Info                            : UTF-8 Plain Text\nLanguage                                 : English\nDefault                                  : No\nForced                                   : No\n\nMenu\n00:00:00.000                             : en:00:00:00.000\n00:01:59.745                             : en:00:01:59.745\n00:04:27.726                             : en:00:04:27.726\n00:11:12.672                             : en:00:11:12.672\n00:12:51.562                             : en:00:12:51.562\n00:18:00.705                             : en:00:18:00.705\n00:22:43.362                             : en:00:22:43.362\n00:27:29.606                             : en:00:27:29.606\n00:30:39.004                             : en:00:30:39.004\n00:35:05.854                             : en:00:35:05.854\n00:38:07.160                             : en:00:38:07.160\n00:42:09.944                             : en:00:42:09.944\n00:43:24.811                             : en:00:43:24.811\n00:47:01.152                             : en:00:47:01.152\n00:49:04.358                             : en:00:49:04.358\n00:51:07.273                             : en:00:51:07.273\n00:53:55.232                             : en:00:53:55.232\n00:58:19.162                             : en:00:58:19.162\n01:03:32.225                             : en:01:03:32.225\n01:06:39.454                             : en:01:06:39.454\n01:13:42.752                             : en:01:13:42.752\n01:16:37.468                             : en:01:16:37.468\n01:19:49.410                             : en:01:19:49.410\n01:23:44.770                             : en:01:23:44.770\n01:28:07.782                             : en:01:28:07.782\n01:30:33.928                             : en:01:30:33.928\n01:34:05.932                             : en:01:34:05.932\n01:38:55.263                             : en:01:38:55.263\n01:43:56.063                             : en:01:43:56.063\n01:46:14.368                             : en:01:46:14.368\n01:51:49.286                             : en:01:51:49.286\n01:56:13.967                             : en:01:56:13.967","torrent":{"xt":"urn:btih:52117f650112ce64ddfdc60b15e67205a3acc8a4","amp;dn":"The.Amityville.Horror.1979.1080p.BluRay.x264.DD5.1-FGT","amp;tr":["udp%3A%2F%2Ftracker.openbittorrent.com%3A80","udp%3A%2F%2Fopen.demonii.com%3A1337","udp%3A%2F%2Ftracker.coppersurfer.tk%3A6969","udp%3A%2F%2Fexodus.desync.com%3A6969"],"infoHash":"52117f650112ce64ddfdc60b15e67205a3acc8a4","infoHashBuffer":{"type":"Buffer","data":[82,17,127,101,1,18,206,100,221,253,198,11,21,230,114,5,163,172,200,164]},"announce":[],"urlList":[]}}